# xmcd CD database file
#
# Track frame offsets:
#	150
#	19475
#	37407
#	55038
#	77478
#	99493
#	125387
#	140236
#	159018
#	178218
#	197234
#	207142
#	225108
#
# Disc length: 3263 seconds
#
# Revision: 0
# Processed by: cddbd v1.5.1PL0 Copyright (c) Steve Scherf et al.
# Submitted via: CDex 1.51
#
DISCID=ac0cbd0d
DTITLE=Tom Conway - No Fixed Address
DYEAR=2004
DGENRE=Jazz
TTITLE0=Mystery in Morocco
TTITLE1=Petroglyph
TTITLE2=Black Forest Jam
TTITLE3=Mirage
TTITLE4=No Fixed Address
TTITLE5=French Kiss
TTITLE6=Maui Mango
TTITLE7=Coconut Wireless
TTITLE8=Fer-de-Lance
TTITLE9=Rainblossom
TTITLE10=Shadow of a Leprechaun
TTITLE11=Red Ginger
TTITLE12=Capricorn Rising
EXTD=YEAR: 2004
EXTT0=
EXTT1=
EXTT2=
EXTT3=
EXTT4=
EXTT5=
EXTT6=
EXTT7=
EXTT8=
EXTT9=
EXTT10=
EXTT11=
EXTT12=
PLAYORDER=
